<?xml version="1.0" encoding="UTF-8" standalone="no"?>
<!-- Created with Inkscape (http://www.inkscape.org/) -->

<svg
   xmlns:dc="http://purl.org/dc/elements/1.1/"
   xmlns:cc="http://creativecommons.org/ns#"
   xmlns:rdf="http://www.w3.org/1999/02/22-rdf-syntax-ns#"
   xmlns:svg="http://www.w3.org/2000/svg"
   xmlns="http://www.w3.org/2000/svg"
   xmlns:xlink="http://www.w3.org/1999/xlink"
   xmlns:sodipodi="http://sodipodi.sourceforge.net/DTD/sodipodi-0.dtd"
   xmlns:inkscape="http://www.inkscape.org/namespaces/inkscape"
   width="308.51163mm"
   height="249.81157mm"
   viewBox="0 0 308.51163 249.81157"
   version="1.1"
   id="svg8"
   inkscape:version="0.92.0 r"
   sodipodi:docname="Custom Launcher Icon Blue 002.svg">
  <defs
     id="defs2">
    <linearGradient
       inkscape:collect="always"
       id="linearGradient4519">
      <stop
         style="stop-color:#00aad4;stop-opacity:1;"
         offset="0"
         id="stop4515" />
      <stop
         style="stop-color:#00aad4;stop-opacity:0;"
         offset="1"
         id="stop4517" />
    </linearGradient>
    <linearGradient
       inkscape:collect="always"
       id="linearGradient4509">
      <stop
         style="stop-color:#00aad4;stop-opacity:1;"
         offset="0"
         id="stop4505" />
      <stop
         style="stop-color:#00aad4;stop-opacity:0;"
         offset="1"
         id="stop4507" />
    </linearGradient>
    <radialGradient
       inkscape:collect="always"
       xlink:href="#linearGradient4509"
       id="radialGradient4511"
       cx="-93.951958"
       cy="137.49413"
       fx="-93.951958"
       fy="137.49413"
       r="154.12587"
       gradientTransform="matrix(1,0,0,0.80928776,0,26.221811)"
       gradientUnits="userSpaceOnUse" />
    <radialGradient
       inkscape:collect="always"
       xlink:href="#linearGradient4519"
       id="radialGradient4521"
       cx="-93.95137"
       cy="168.99281"
       fx="-93.95137"
       fy="168.99281"
       r="44.115002"
       gradientTransform="matrix(1.6262013,-0.00318504,0.00161802,0.82611905,58.559035,34.340172)"
       gradientUnits="userSpaceOnUse" />
  </defs>
  <sodipodi:namedview
     id="base"
     pagecolor="#ffffff"
     bordercolor="#666666"
     borderopacity="1.0"
     inkscape:pageopacity="0.0"
     inkscape:pageshadow="2"
     inkscape:zoom="0.49497475"
     inkscape:cx="534.27837"
     inkscape:cy="530.04814"
     inkscape:document-units="mm"
     inkscape:current-layer="layer1"
     showgrid="false"
     inkscape:showpageshadow="false"
     inkscape:pagecheckerboard="true"
     showborder="true"
     inkscape:snap-global="false"
     inkscape:window-width="1366"
     inkscape:window-height="703"
     inkscape:window-x="0"
     inkscape:window-y="0"
     inkscape:window-maximized="1"
     fit-margin-top="0"
     fit-margin-left="0"
     fit-margin-right="0"
     fit-margin-bottom="0" />
  <metadata
     id="metadata5">
    <rdf:RDF>
      <cc:Work
         rdf:about="">
        <dc:format>image/svg+xml</dc:format>
        <dc:type
           rdf:resource="http://purl.org/dc/dcmitype/StillImage" />
        <dc:title></dc:title>
      </cc:Work>
    </rdf:RDF>
  </metadata>
  <g
     inkscape:label="Layer 1"
     inkscape:groupmode="layer"
     id="layer1"
     transform="translate(248.20777,-12.56429)">
    <path
       style="fill:#00ffff;stroke:#000000;stroke-width:0.26458332px;stroke-linecap:butt;stroke-linejoin:miter;stroke-opacity:1"
       d="m -94.165902,12.761938 v 0.175183 c -8.891908,3.655268 -202.277318,85.310142 -142.447118,249.289179 0,0 145.890183,-25.74646 98.27359,-49.13706 -85.38281,-41.94242 41.078986,-46.17757 43.442528,-46.29078 2.363542,0.11321 130.715206,4.34836 45.332411,46.29078 -47.616558,23.3906 98.273586,49.13706 98.273586,49.13706 C 108.53932,98.247263 -84.846114,16.592389 -93.738021,12.937121 v -0.175183 c 0,0 -0.161103,0.06643 -0.213941,0.08785 -0.05284,-0.02142 -0.21394,-0.08785 -0.21394,-0.08785 z"
       id="path4485"
       inkscape:connector-curvature="0"
       sodipodi:nodetypes="cccscsccccc" />
    <path
       style="fill:#00ffff;stroke:#000000;stroke-width:0.26458332px;stroke-linecap:butt;stroke-linejoin:miter;stroke-opacity:1"
       d="m -94.496041,169.61653 c -4.09547,-0.027 -37.029899,0.4114 -42.482689,21.36098 -5.28287,20.29671 13.04054,29.2933 13.04054,29.2933 0,0 -8.88266,-15.49673 5.66942,-18.14256 13.61361,-2.4752 23.088921,15.88341 24.254871,18.26245 l 10e-4,0.25838 c 0,0 0.03957,-0.0817 0.06201,-0.12868 0.02237,0.0469 0.06149,0.12868 0.06149,0.12868 l -0.001,-0.25477 c 1.160198,-2.36801 10.638255,-20.74218 24.256918,-18.26606 14.552075,2.64583 5.66942,18.14256 5.66942,18.14256 0,0 18.322901,-8.99659 13.040031,-29.2933 -5.762913,-22.14107 -42.540226,-21.37231 -43.215966,-21.35632 -0.03608,-8.7e-4 -0.123233,-0.003 -0.35605,-0.005 z"
       id="path4495"
       inkscape:connector-curvature="0" />
    <path
       sodipodi:nodetypes="cccscsccccc"
       inkscape:connector-curvature="0"
       id="path4503"
       d="m -94.165902,12.761938 v 0.175183 c -8.891908,3.655268 -202.277318,85.310142 -142.447118,249.289179 0,0 145.890183,-25.74646 98.27359,-49.13706 -85.38281,-41.94242 41.078986,-46.17757 43.442528,-46.29078 2.363542,0.11321 130.715206,4.34836 45.332411,46.29078 -47.616558,23.3906 98.273586,49.13706 98.273586,49.13706 C 108.53932,98.247263 -84.846114,16.592389 -93.738021,12.937121 v -0.175183 c 0,0 -0.161103,0.06643 -0.213941,0.08785 -0.05284,-0.02142 -0.21394,-0.08785 -0.21394,-0.08785 z"
       style="fill:url(#radialGradient4511);fill-opacity:1;stroke:none;stroke-width:0.26458332px;stroke-linecap:butt;stroke-linejoin:miter;stroke-opacity:1" />
    <path
       inkscape:connector-curvature="0"
       id="path4513"
       d="m -94.496041,169.61653 c -4.09547,-0.027 -37.029899,0.4114 -42.482689,21.36098 -5.28287,20.29671 13.04054,29.2933 13.04054,29.2933 0,0 -8.88266,-15.49673 5.66942,-18.14256 13.61361,-2.4752 23.088921,15.88341 24.254871,18.26245 l 10e-4,0.25838 c 0,0 0.03957,-0.0817 0.06201,-0.12868 0.02237,0.0469 0.06149,0.12868 0.06149,0.12868 l -0.001,-0.25477 c 1.160198,-2.36801 10.638255,-20.74218 24.256918,-18.26606 14.552075,2.64583 5.66942,18.14256 5.66942,18.14256 0,0 18.322901,-8.99659 13.040031,-29.2933 -5.762913,-22.14107 -42.540226,-21.37231 -43.215966,-21.35632 -0.03608,-8.7e-4 -0.123233,-0.003 -0.35605,-0.005 z"
       style="fill:url(#radialGradient4521);fill-opacity:1;stroke:#000000;stroke-width:0.26458332px;stroke-linecap:butt;stroke-linejoin:miter;stroke-opacity:1" />
  </g>
</svg>
